/* XPM */
static char *raceintospace[] = {
/* columns rows colors chars-per-pixel */
"32 32 244 2 ",
"   c #0C1314",
".  c #0F1718",
"X  c #101718",
"o  c #131A1C",
"O  c #322F1D",
"+  c #34301F",
"@  c #151B25",
"#  c #191D26",
"$  c #171C28",
"%  c #1D2126",
"&  c #1D232C",
"*  c #1E2432",
"=  c #24292D",
"-  c #3A3529",
";  c #242A34",
":  c #2B2E34",
">  c #232B3A",
",  c #2C2A3D",
"<  c #312D39",
"1  c #2A3137",
"2  c #2D333B",
"3  c #3D3931",
"4  c #343838",
"5  c #3B3D3F",
"6  c #50332C",
"7  c #443C32",
"8  c #583434",
"9  c #7C383C",
"0  c #584D2B",
"q  c #5D522F",
"w  c #45433C",
"e  c #594F36",
"r  c #5C5135",
"t  c #624736",
"y  c #675B3A",
"u  c #2D2D43",
"i  c #2B294A",
"p  c #332D44",
"a  c #362E4A",
"s  c #2D3548",
"d  c #393A46",
"f  c #33334C",
"g  c #3A3D4B",
"h  c #2E2951",
"j  c #322555",
"k  c #2F3E53",
"l  c #383554",
"z  c #46374A",
"x  c #4E354D",
"c  c #573444",
"v  c #453C5A",
"b  c #6D3B4F",
"n  c #4A3B62",
"m  c #4A2777",
"M  c #51297F",
"N  c #6E3C79",
"B  c #3D4149",
"V  c #3F4253",
"C  c #37516B",
"Z  c #444649",
"A  c #4E4E4B",
"S  c #55514B",
"D  c #5C564D",
"F  c #464857",
"G  c #43455C",
"H  c #4A4D5D",
"J  c #594853",
"K  c #4D5058",
"L  c #535554",
"P  c #585959",
"I  c #784D48",
"U  c #694758",
"Y  c #7D4A58",
"T  c #62575D",
"R  c #7F5650",
"E  c #766849",
"W  c #74684D",
"Q  c #65605A",
"!  c #444666",
"~  c #4C4D64",
"^  c #4B4C6A",
"/  c #5A4562",
"(  c #584968",
")  c #4C5069",
"_  c #525465",
"`  c #53556A",
"'  c #585868",
"]  c #5B5D6D",
"[  c #444971",
"{  c #4B4F74",
"}  c #4D5274",
"|  c #49527A",
" . c #545777",
".. c #595B73",
"X. c #5C5D7C",
"o. c #615879",
"O. c #556276",
"+. c #5E6170",
"@. c #676766",
"#. c #62637C",
"$. c #696A7A",
"%. c #766E70",
"&. c #923B34",
"*. c #9B4138",
"=. c #A44836",
"-. c #BA4F35",
";. c #B3553F",
":. c #90793F",
">. c #C35A3D",
",. c #D55934",
"<. c #CD623C",
"1. c #D4663D",
"2. c #E2673C",
"3. c #93504C",
"4. c #B95A44",
"5. c #A05655",
"6. c #906A53",
"7. c #87785B",
"8. c #AD6955",
"9. c #BC685B",
"0. c #8D5577",
"q. c #856D67",
"w. c #8F7F69",
"e. c #857979",
"r. c #B66F66",
"t. c #D7764A",
"y. c #C87054",
"u. c #D67954",
"i. c #E67B48",
"p. c #92825F",
"a. c #8F806A",
"s. c #938369",
"d. c #9C8B73",
"f. c #DA9355",
"g. c #E98F4F",
"h. c #E88C53",
"j. c #D9876B",
"k. c #C88873",
"l. c #C79078",
"z. c #EE9D64",
"x. c #F39860",
"c. c #F8B667",
"v. c #EFB67A",
"b. c #F6C37B",
"n. c #FCD279",
"m. c #5A2F86",
"M. c #5B3285",
"N. c #643C89",
"B. c #435D8C",
"V. c #575C85",
"C. c #5A5E8C",
"Z. c #795286",
"A. c #6F5093",
"S. c #7D5895",
"D. c #5C6288",
"F. c #5E6593",
"G. c #5D6398",
"H. c #5D7598",
"J. c #646686",
"K. c #6C6C84",
"L. c #62658B",
"P. c #6F7187",
"I. c #73738C",
"U. c #79778B",
"Y. c #696D92",
"T. c #646A99",
"R. c #7E689D",
"E. c #6D7194",
"W. c #6B729C",
"Q. c #747494",
"!. c #797994",
"~. c #71749B",
"^. c #7B7B9C",
"/. c #7D5BA8",
"(. c #636CA3",
"). c #6C73A5",
"_. c #7678A3",
"`. c #747AA2",
"'. c #797AA3",
"]. c #8B5596",
"[. c #837789",
"{. c #966A93",
"}. c #847F94",
"|. c #A9738F",
" X c #986AA3",
".X c #8779A7",
"XX c #A47FB3",
"oX c #6585A6",
"OX c #7E81AC",
"+X c #888289",
"@X c #84849C",
"#X c #898898",
"$X c #9B8793",
"%X c #B58784",
"&X c #B68E8F",
"*X c #8585A7",
"=X c #8C8CA3",
"-X c #948FA3",
";X c #9796A6",
":X c #9594AA",
">X c #9A9AAE",
",X c #878DB4",
"<X c #9D87B2",
"1X c #8C92B5",
"2X c #9A9DB2",
"3X c #A88CA5",
"4X c #A698AA",
"5X c #B597A8",
"6X c #B593B3",
"7X c #B7A4AB",
"8X c #A6A3B7",
"9X c #B2A6BD",
"0X c #BEB3BD",
"qX c #C98F90",
"wX c #C9A79A",
"eX c #D0A19A",
"rX c #DBB696",
"tX c #E3BC8B",
"yX c #E5B498",
"uX c #F0BD93",
"iX c #CDA7A8",
"pX c #D5B7AA",
"aX c #F2BEAD",
"sX c #F9C783",
"dX c #FBDC84",
"fX c #F0CC98",
"gX c #FBE68C",
"hX c #F8C2A1",
"jX c #FCEBA6",
"kX c #FBE4BE",
"lX c #FBF5BA",
"zX c #AB91C6",
"xX c #B5AACB",
"cX c #BFB8DC",
"vX c #BEB9EA",
"bX c #C3B7C8",
"nX c #D3BAC9",
"mX c #C7BBDA",
"MX c #CABDE9",
"NX c #D7C3D9",
"BX c #FBF8C6",
"VX c #CBC3EC",
"CX c #D3C9E9",
"ZX c #FCFBEB",
/* pixels */
"@ @ @ @ @ @ @ @ @ @ # 3 :.a.a.7.0 r a.q y a.w.d.7.a.a.a.y s.p.:.",
"@ @ @ @ . @ @ i @ @ @ 3 S ~.I.@X1 o I.2 ` I.Q.-XX.E.!.U.L . 4 :.",
"o @ @ @ @ @ @ G 1 @ $ A w ' H @Xd   =X' !.$.1 1 F ' ' 1 B L K q ",
"@ @ @ @ @ @ $ { V @ > P D 2X2X>Xo = P.$.@XP     I.2X>Xo Q L K y ",
"@ @ @ @ @ @ @  .H @ > P 3 H B P.B X.~ #.#.P     +._ H . 5 L U.y ",
"@ @ @ @ @ @ @ }.] @ * %.O     ) ` ^.Q.^.X.^.^.@XJ.OX!.P.5 e.A y ",
". @ @ @ @ @ @ o.` @ # 3 O     ) ) J.E.Q.u D.E.@XV Y.Q.#.5 @.@.y ",
"@ @ @ @ @ @ , }.$.% # 3 w H     ; ..` H . V d . ) ` ` ] O._ ' E ",
"oXB.C s u * ~ 4X>X% % 7 S >XB   2 @X!.:X2 ] K.2 =X@X=X#.Q.^.=XE ",
"/.zXcXcXxX X{.#X}.8 6 t + $.;X% : +.] =XB _ ;XH =X. . 5 P.+.4 0 ",
"zXVXNX XqXaXnX-X$X2.,.<.O o }.}.B >X>X=Xd _ 2X+.#X    V 2X2XF 0 ",
"vXVXVXbX6XqXeX4XbXkXsXc.- = 1 #._ O.& % ! _ ^ #.$.: = H O.B 1 q ",
"NXMXvXCXMXzXXXbX0Xc.jXkXD .X^.~.F O.  X E.OX'.K.^.OX*XP.OXOX^.E ",
"uXxXnXnXNXmXNX9X:Xr.i.c.w ! O.K = G o % G  ...B g ....F H ] ..y ",
"eXk.rXyXpXxXmX4X}.].|.u.W A B S P A @.A w Q L L T P P S P P Q p.",
"3.*.4.yXyXuXpX;X}.N.].].r.&Xr.f.v.fXl.Q r e e e r r r r r r r r ",
"*.-.4.b.uXfXrX4XX.m.m.A.6X7X7XwX&X8X8X'.k & $ $ % # & # @ # @ # ",
"&.1.z.dXgXsXtXl.%XZ.qXiX,X4X^.T.oX(.).).2XC & $ $ # # # @ # @ # ",
"&.*.h.dXn.dXv.j.k.eXhXpXY.!.F : 1 u V.W.5X0XO.% % % % @ @ $ @ # ",
"u.*.1.n.sXdXjXZXZXjXn.rXT.A J A 6.t = W.S.{.9XH.; % % @ @ @ # @ ",
"5.9.4.i.b.gXlXZXZXjXn.tXI.U 6.3.8.I 8 ).A.N.N.<XH.> % # # @ # # ",
"/ 8.3.&.g.i.v.BXlXgXb.wXY.J I I 3.I - W.5XA.M.N..XH.> % % % @ @ ",
"c 9.y.=.x.t.<.x.i.1.j.%X*X] 7 6 - - B ).3X|.m m M R.H.; % 1 & @ ",
"x Y 9.j.z.>.-.i.t.;.k.wX%X#...d 3 P E.| C.R.0.N M Z.3XI.U 3.: # ",
"p z c b 5.i.y.3.3.4.k.e.K.| | [ { F.T.G.L..X0.b 0.9.0./ / U d # ",
"a p p p c *.9 p p x +XI.W. .V.F.C.T.{ C.G.).J./ U U / ( ( ( d # ",
"* u f a < c a , > T [.`.~.^ } C.T.(. .V.C.T.`.G n ( n n n D.s # ",
"> p u , p a p , u 3.J.W.L.[ V.} D.F.X.D.(.'.,XX.( N ( l f [ H.& ",
"u p p s a a p u , q.L.`.) D.} f } } d ~.,X1X1X#.( ( ( v v h | C ",
"p p p p p p , , d U.~.^.G J.k  .) s ~ Y.1X,X`.{ ( J.( l f i h B.",
"u p ~ f f f p u B $.~.!.! V.= V.| g ) *X^.V n ^ ( ( v l h h i j ",
"* l !.f f u , u Z #.~.$.Y.! [  .X.Y.~.,X#.u u l z F l j j i i h "
};
